<?xml version="1.0" encoding="utf-8"?>
<!-- Generator: Adobe Illustrator 18.0.0, SVG Export Plug-In . SVG Version: 6.00 Build 0)  -->
<!DOCTYPE svg PUBLIC "-//W3C//DTD SVG 1.1//EN" "http://www.w3.org/Graphics/SVG/1.1/DTD/svg11.dtd">
<svg version="1.1" id="Layer_1" xmlns="http://www.w3.org/2000/svg" xmlns:xlink="http://www.w3.org/1999/xlink" x="0px" y="0px"
	 viewBox="0 0 228 89.1" enable-background="new 0 0 228 89.1" xml:space="preserve">
<g>
	<g>
		<polygon fill="#FFFFFF" points="86.1,86 23.9,86 23.9,1.2 56.2,1.2 86.1,30.7 		"/>
		<path fill="#8C8C8C" d="M87.4,87.2H22.7V0h34l30.7,30.2V87.2z M25.1,84.7h59.7V31.2L55.7,2.5H25.1V84.7z"/>
	</g>
	<g>
		<path fill="#FFFFFF" d="M85.3,33.1H58.1c-2.1,0-3.9-1.7-3.9-3.9v-27"/>
		<path fill="#8C8C8C" d="M85.3,34.3H58.1c-2.8,0-5.1-2.3-5.1-5.1v-27c0-0.7,0.6-1.2,1.2-1.2s1.2,0.6,1.2,1.2v27
			c0,1.5,1.2,2.6,2.6,2.6h27.2c0.7,0,1.2,0.6,1.2,1.2C86.6,33.8,86,34.3,85.3,34.3z"/>
	</g>
	<g>
		<rect x="0" y="41.5" fill="#29B6C5" width="74" height="30"/>
	</g>
	<g>
		<path fill="#FFFFFF" d="M11.9,66.4V48.7H24v3h-8.6v4.2h7.4v3h-7.4v7.5H11.9z"/>
		<path fill="#FFFFFF" d="M26.9,66.4V48.7h3.6v17.7H26.9z"/>
		<path fill="#FFFFFF" d="M34,66.4V48.8h3.6v14.6h8.9v3H34z"/>
		<path fill="#FFFFFF" d="M49,66.4V48.7h13.2v3h-9.6v3.9h8.9v3h-8.9v4.8h9.9v3H49z"/>
	</g>
</g>
<text transform="matrix(1 0 0 1 95.8472 71.5689)" fill="#8C8C8C" font-family="'Arial-ItalicMT'" font-size="54.0117">Icons</text>
<line fill="none" stroke="#8C8C8C" stroke-width="3" stroke-miterlimit="10" x1="96.3" y1="78" x2="228" y2="78"/>
</svg>
